<svg width="25" height="24" viewBox="0 0 25 24" fill="none" xmlns="http://www.w3.org/2000/svg">
<path fill-rule="evenodd" clip-rule="evenodd" d="M7.88199 1.066C9.05499 1.012 9.42899 1 12.417 1C15.405 1 15.779 1.013 16.951 1.066C18.123 1.119 18.923 1.306 19.623 1.577C20.356 1.854 21.021 2.287 21.571 2.847C22.131 3.396 22.563 4.06 22.839 4.794C23.111 5.494 23.297 6.294 23.351 7.464C23.405 8.639 23.417 9.013 23.417 12C23.417 14.988 23.404 15.362 23.351 16.535C23.298 17.705 23.111 18.505 22.839 19.205C22.563 19.9391 22.1303 20.6042 21.571 21.154C21.021 21.714 20.356 22.146 19.623 22.422C18.923 22.694 18.123 22.88 16.953 22.934C15.779 22.988 15.405 23 12.417 23C9.42899 23 9.05499 22.987 7.88199 22.934C6.71199 22.881 5.91199 22.694 5.21199 22.422C4.47791 22.146 3.81281 21.7133 3.26299 21.154C2.70337 20.6047 2.27031 19.9399 1.99399 19.206C1.72299 18.506 1.53699 17.706 1.48299 16.536C1.42899 15.361 1.41699 14.987 1.41699 12C1.41699 9.012 1.42999 8.638 1.48299 7.466C1.53599 6.294 1.72299 5.494 1.99399 4.794C2.27071 4.06008 2.70411 3.39531 3.26399 2.846C3.81303 2.2865 4.47746 1.85344 5.21099 1.577C5.91099 1.306 6.71099 1.12 7.88099 1.066H7.88199ZM16.862 3.046C15.702 2.993 15.354 2.982 12.417 2.982C9.47999 2.982 9.13199 2.993 7.97199 3.046C6.89899 3.095 6.31699 3.274 5.92899 3.425C5.41599 3.625 5.04899 3.862 4.66399 4.247C4.29904 4.60205 4.01817 5.03428 3.84199 5.512C3.69099 5.9 3.51199 6.482 3.46299 7.555C3.40999 8.715 3.39899 9.063 3.39899 12C3.39899 14.937 3.40999 15.285 3.46299 16.445C3.51199 17.518 3.69099 18.1 3.84199 18.488C4.01799 18.965 4.29899 19.398 4.66399 19.753C5.01899 20.118 5.45199 20.399 5.92899 20.575C6.31699 20.726 6.89899 20.905 7.97199 20.954C9.13199 21.007 9.47899 21.018 12.417 21.018C15.355 21.018 15.702 21.007 16.862 20.954C17.935 20.905 18.517 20.726 18.905 20.575C19.418 20.375 19.785 20.138 20.17 19.753C20.535 19.398 20.816 18.965 20.992 18.488C21.143 18.1 21.322 17.518 21.371 16.445C21.424 15.285 21.435 14.937 21.435 12C21.435 9.063 21.424 8.715 21.371 7.555C21.322 6.482 21.143 5.9 20.992 5.512C20.792 4.999 20.555 4.632 20.17 4.247C19.8149 3.88207 19.3827 3.60121 18.905 3.425C18.517 3.274 17.935 3.095 16.862 3.046ZM11.012 15.391C11.7967 15.7176 12.6704 15.7617 13.4839 15.5157C14.2975 15.2697 15.0004 14.7489 15.4726 14.0422C15.9448 13.3356 16.157 12.4869 16.073 11.6411C15.989 10.7953 15.614 10.005 15.012 9.405C14.6282 9.02148 14.1642 8.72781 13.6533 8.54515C13.1424 8.36248 12.5974 8.29536 12.0575 8.34862C11.5176 8.40187 10.9961 8.57418 10.5308 8.85313C10.0654 9.13208 9.66774 9.51074 9.36629 9.96185C9.06485 10.413 8.86718 10.9253 8.78751 11.462C8.70784 11.9986 8.74814 12.5463 8.90553 13.0655C9.06292 13.5847 9.33347 14.0626 9.69771 14.4647C10.062 14.8668 10.5108 15.1832 11.012 15.391ZM8.41899 8.002C8.94402 7.47697 9.56731 7.0605 10.2533 6.77636C10.9393 6.49222 11.6745 6.34597 12.417 6.34597C13.1595 6.34597 13.8947 6.49222 14.5807 6.77636C15.2667 7.0605 15.89 7.47697 16.415 8.002C16.94 8.52702 17.3565 9.15032 17.6406 9.8363C17.9248 10.5223 18.071 11.2575 18.071 12C18.071 12.7425 17.9248 13.4777 17.6406 14.1637C17.3565 14.8497 16.94 15.473 16.415 15.998C15.3547 17.0583 13.9165 17.654 12.417 17.654C10.9175 17.654 9.47933 17.0583 8.41899 15.998C7.35866 14.9377 6.76297 13.4995 6.76297 12C6.76297 10.5005 7.35866 9.06234 8.41899 8.002ZM19.325 7.188C19.4551 7.06527 19.5593 6.91768 19.6313 6.75397C19.7033 6.59027 19.7418 6.41377 19.7444 6.23493C19.747 6.05609 19.7137 5.87855 19.6465 5.71281C19.5792 5.54707 19.4794 5.39651 19.353 5.27004C19.2265 5.14357 19.0759 5.04376 18.9102 4.97652C18.7444 4.90928 18.5669 4.87598 18.3881 4.87858C18.2092 4.88119 18.0327 4.91965 17.869 4.9917C17.7053 5.06374 17.5577 5.1679 17.435 5.298C17.1963 5.55103 17.0656 5.88712 17.0707 6.23493C17.0758 6.58274 17.2162 6.91488 17.4621 7.16084C17.7081 7.40681 18.0403 7.54723 18.3881 7.5523C18.7359 7.55737 19.072 7.42669 19.325 7.188Z" fill="#4761D3"/>
</svg>
