<svg width="25" height="24" viewBox="0 0 25 24" fill="none" xmlns="http://www.w3.org/2000/svg">
<path d="M20.417 22H18.747C18.2166 22 17.7079 21.7893 17.3328 21.4142C16.9577 21.0391 16.747 20.5304 16.747 20V14.63C16.7559 14.4194 16.6923 14.2121 16.5667 14.0428C16.4411 13.8735 16.2611 13.7525 16.057 13.7C15.9382 13.6819 15.817 13.6895 15.7014 13.7223C15.5858 13.7551 15.4786 13.8123 15.387 13.89C15.2927 13.97 15.217 14.0696 15.1652 14.1819C15.1134 14.2941 15.0867 14.4164 15.087 14.54V20C15.087 20.5304 14.8763 21.0391 14.5012 21.4142C14.1261 21.7893 13.6174 22 13.087 22H11.417C10.8866 22 10.3779 21.7893 10.0028 21.4142C9.62771 21.0391 9.41699 20.5304 9.41699 20V14.54C9.41699 12.8161 10.1018 11.1628 11.3208 9.94381C12.5398 8.72482 14.1931 8.04 15.917 8.04C17.6409 8.04 19.2942 8.72482 20.5132 9.94381C21.7322 11.1628 22.417 12.8161 22.417 14.54V20C22.417 20.5304 22.2063 21.0391 21.8312 21.4142C21.4561 21.7893 20.9474 22 20.417 22ZM15.917 11.69C16.0735 11.6801 16.2305 11.6801 16.387 11.69C17.0584 11.8191 17.6628 12.1806 18.0944 12.7108C18.5259 13.2411 18.757 13.9064 18.747 14.59V20H20.417V14.54C20.417 13.3465 19.9429 12.2019 19.099 11.358C18.2551 10.5141 17.1105 10.04 15.917 10.04C14.7235 10.04 13.5789 10.5141 12.735 11.358C11.8911 12.2019 11.417 13.3465 11.417 14.54V20H13.087V14.54C13.087 13.7876 13.3845 13.0657 13.9147 12.5318C14.4448 11.9979 15.1646 11.6953 15.917 11.69ZM6.41699 22H4.41699C3.88656 22 3.37785 21.7893 3.00278 21.4142C2.62771 21.0391 2.41699 20.5304 2.41699 20V10C2.41699 9.46957 2.62771 8.96086 3.00278 8.58579C3.37785 8.21072 3.88656 8 4.41699 8H6.41699C6.94743 8 7.45613 8.21072 7.83121 8.58579C8.20628 8.96086 8.41699 9.46957 8.41699 10V20C8.41699 20.5304 8.20628 21.0391 7.83121 21.4142C7.45613 21.7893 6.94743 22 6.41699 22ZM4.41699 10V20H6.41699V10H4.41699ZM5.41699 7C4.82365 7 4.24363 6.82405 3.75028 6.49441C3.25694 6.16477 2.87242 5.69623 2.64535 5.14805C2.41829 4.59987 2.35888 3.99667 2.47464 3.41473C2.59039 2.83279 2.87612 2.29824 3.29567 1.87868C3.71523 1.45912 4.24978 1.1734 4.83172 1.05765C5.41367 0.94189 6.01687 1.0013 6.56504 1.22836C7.11322 1.45543 7.58176 1.83994 7.9114 2.33329C8.24105 2.82664 8.41699 3.40666 8.41699 4C8.41699 4.79565 8.10092 5.55871 7.53831 6.12132C6.9757 6.68393 6.21264 7 5.41699 7ZM5.41699 3C5.21921 3 5.02587 3.05865 4.86142 3.16853C4.69697 3.27841 4.5688 3.43459 4.49311 3.61732C4.41743 3.80004 4.39762 4.00111 4.43621 4.19509C4.47479 4.38907 4.57003 4.56726 4.70989 4.70711C4.84974 4.84696 5.02792 4.9422 5.2219 4.98079C5.41588 5.01937 5.61695 4.99957 5.79968 4.92388C5.9824 4.84819 6.13858 4.72002 6.24846 4.55557C6.35834 4.39112 6.41699 4.19778 6.41699 4C6.41699 3.73478 6.31164 3.48043 6.1241 3.29289C5.93656 3.10536 5.68221 3 5.41699 3Z" fill="#4761D3"/>
</svg>
