<svg width="70" height="70" viewBox="0 0 70 70" fill="none" xmlns="http://www.w3.org/2000/svg">
<path d="M63.962 19.7166L54.1328 59.1792C53.4328 62.125 50.8079 64.1666 47.7745 64.1666H9.44948C5.04532 64.1666 1.89536 59.8498 3.20786 55.6206L15.487 16.1876C16.3328 13.4459 18.8704 11.5498 21.7287 11.5498H57.6037C60.3745 11.5498 62.6787 13.2415 63.6412 15.5748C64.1954 16.829 64.312 18.2583 63.962 19.7166Z" stroke="white" stroke-width="1.5" stroke-miterlimit="10"/>
<path d="M46.667 64.1667H60.6087C64.3712 64.1667 67.317 60.9875 67.0545 57.225L64.167 17.5" stroke="white" stroke-width="1.5" stroke-miterlimit="10" stroke-linecap="round" stroke-linejoin="round"/>
<path d="M28.2324 18.6084L31.2658 6.00854" stroke="white" stroke-width="1.5" stroke-miterlimit="10" stroke-linecap="round" stroke-linejoin="round"/>
<path d="M47.7754 18.6375L50.5171 5.97925" stroke="white" stroke-width="1.5" stroke-miterlimit="10" stroke-linecap="round" stroke-linejoin="round"/>
<path d="M22.458 35H45.7913" stroke="white" stroke-width="1.5" stroke-miterlimit="10" stroke-linecap="round" stroke-linejoin="round"/>
<path d="M19.542 46.6667H42.8753" stroke="white" stroke-width="1.5" stroke-miterlimit="10" stroke-linecap="round" stroke-linejoin="round"/>
</svg>
